<?xml version="1.0" encoding="UTF-8"?>
<svg width="640" height="480" xmlns="http://www.w3.org/2000/svg">
 <!-- Created with SVG-edit - http://svg-edit.googlecode.com/ -->
 <g>
  <title>Calque 1</title>
  <path id="svg_1" d="m377.399994,93l-88.599976,-6.200005l-43.400024,-28.799995l-70,-13l-96.999992,16l-35,38l-13.000002,76l-12,78l46.000002,67l10.999992,89.600006l61.399994,51.999969l124.600006,-9.599976l98,2l39,-49l51,-37l40,-13l94.000031,54l36,-8l9,-43l-21,-55l-61,-19l-59.000031,-27l-10,-58l57.000031,-30l49,-49l-23,-63l-54.000031,-31l-56,11l-44,35" stroke-width="5" fill="#ffff00"/>
  <path id="svg_2" d="m105,141.400009l19,-31.000008l87,-8.799995l97.399902,13.999985l92.200104,-6.400002l77.399994,-20.799988l26,24l-38,46.999992l-45,45l16,41l86,44l28,4l43,19l22,40l0,37l-16,8l-27,-2l-26,-4l-62,-42l-47,-2l-34,21l-65,35l-62,31l-86,-9l-67,-34l-29,-29l-6,-57l-20,-40l-2,-16l2,-27l21,-20l13.600006,-32l1.399994,-28.999985z" stroke-width="5" fill="#00ff00"/>
  <path id="svg_42" d="m336.533325,123.626656l20.266663,11.573326l0.000031,24.399933l-80.799957,0.000122l-20.799973,-9.199905l0.000061,-26.799995l81.333176,0.02652z" stroke-width="5" fill="#007f00"/>
  <path id="svg_41" d="m446.533325,276.82666l20.266663,11.573334l12.400024,12.399994l-8.400024,8.800018l-40,20.399994l-19.599976,-6.399994l-11.200012,-24l46.533325,-22.773346z" stroke-width="5" fill="#007f00"/>
  <path id="svg_3" d="m182.599945,168.199982l-26.19986,8.800003l-20.200043,16.399994l-14.000053,21.999969l-5.199989,22.600052l22.199997,0l8.400024,-19.600021l12.800049,-16.399994l23.399948,-11.199982l23.199997,-4.000015l0.59993,-21.299973l-25,2.699966z" stroke-width="5" fill="#7f7f7f"/>
  <path id="svg_4" d="m117.083328,237.133362l-1.683319,20.666718l-9.599991,17.799927l-14.600029,16.899933l-9,16.100006l-0.199989,15.000061l21.000008,0l2.499985,-16.299957l13.300018,-12.700043l9.600014,-13l9.999924,-19l1.000046,-25.999985l-22.316666,0.53334z" stroke-width="5" fill="#7f7f7f"/>
  <path transform="rotate(-90, 230, 176.155)" id="svg_5" d="m219.401978,153.154205l21.199219,0l0,46.0009l-21.199219,0l0,-46.0009z" stroke-width="5" fill="#7f7f7f"/>
  <path id="svg_6" d="m82.000008,323.351929l21.199219,0l0,37.20282l-21.199219,0l0,-37.20282z" stroke-width="5" fill="#7f7f7f"/>
  <path id="svg_7" transform="rotate(-90, 275.6, 176.155)" d="m265.001984,153.154205l21.199219,0l0,46.0009l-21.199219,0l0,-46.0009z" stroke-width="5" fill="#7f7f7f"/>
  <path id="svg_8" transform="rotate(-90, 321.2, 175.755)" d="m310.60199,152.754211l21.199219,0l0,46.0009l-21.199219,0l0,-46.0009z" stroke-width="5" fill="#7f7f7f"/>
  <path transform="rotate(-90, 117.9, 404.852)" id="svg_9" d="m138.100388,371.300385l-26.200012,8.800018l-20.199997,16.399994l-14,22l-5.199997,22.600006l22.199997,0l8.400009,-19.600006l12.799988,-16.399994l23.400009,-11.200012l24,-4l-0.199982,-21.299988l-25.000015,2.699982z" stroke-width="5" fill="#7f7f7f"/>
  <path id="svg_10" transform="rotate(-180, 199.1, 414.052)" d="m219.300385,380.500397l-26.200012,8.800018l-20.199982,16.399994l-14,22l-5.200012,22.600006l22.200012,0l8.399994,-19.600006l12.799988,-16.399994l23.400024,-11.200012l24,-4l-0.199982,-21.299988l-25.000031,2.699982z" stroke-width="5" fill="#7f7f7f"/>
  <path id="svg_11" d="m258.28299,291.932983l-1.682983,20.666992l-9.600006,17.800018l-14.600006,16.899994l-9,16.100006l-0.199997,15l21,0l2.5,-16.300018l13.300003,-12.699982l9.599976,-13l10,-19l1,-26l-22.316986,0.53299z" stroke-width="5" fill="#7f7f7f"/>
  <path id="svg_13" d="m323.300385,222.500397l-26.200012,8.800018l-20.199982,16.399994l-14,21.999969l-5.200012,22.600037l22.200012,0l8.399994,-19.600037l12.799988,-16.399963l23.400024,-11.200012l24,-4l-0.199982,-21.299988l-25.000031,2.699982z" stroke-width="5" fill="#7f7f7f"/>
  <path transform="rotate(77.8657, 384.301, 201.65)" id="svg_14" d="m404.500397,168.100403l-26.200012,8.800018l-20.199982,16.399994l-14,21.999969l-5.200012,22.600037l22.200012,0l8.399994,-19.600037l12.799988,-16.399963l23.400024,-11.200012l24,-4l-0.199982,-21.299988l-25.000031,2.699982z" stroke-width="5" fill="#7f7f7f"/>
  <path transform="rotate(85.5889, 390.944, 252.369)" id="svg_15" d="m382.428802,233.291855l10.647003,-0.794479l2.479065,3.754242l-19.180908,8.903732l-16.637817,19.790543l-5.416534,30.607117l22.200012,0l6.682861,-23.34317l18.120544,-14.517273l18.916901,-9.240402l7.325653,-16.050674l-7.259155,-14.836243l-17.52594,-8.38356l-23.234528,3.211777l2.882843,20.898392z" stroke-width="5" fill="#7f7f7f"/>
  <path id="svg_16" d="m364.93335,148.96666l11.06665,-9.766663l15.600006,6.800003l2.799988,12.399994l-6,4l-10.399994,4.800003l-10.799988,-3.199997l0.799988,-7.600006l-3.06665,-7.433334z" stroke-width="5" fill="#bfbfbf"/>
  <path transform="rotate(-64.029, 324.867, 267.199)" id="svg_17" d="m310.133362,262.966675l11.06665,-9.766678l15.600006,6.800003l2.799988,12.399994l-6,4l-10.399994,4.800018l-10.799988,-3.200012l0.799988,-7.600006l-3.06665,-7.433319z" stroke-width="5" fill="#bfbfbf"/>
  <path id="svg_18" transform="rotate(-36.4773, 176.066, 215.602)" d="m161.333359,211.366669l11.06665,-9.766663l15.600006,6.799988l2.799988,12.399994l-6,4l-10.399994,4.800018l-10.799988,-3.200012l0.799988,-7.600006l-3.06665,-7.433319z" stroke-width="5" fill="#bfbfbf"/>
  <path id="svg_19" transform="rotate(-36.4773, 171.266, 407.602)" d="m156.533356,403.366669l11.06665,-9.766663l15.600006,6.799988l2.799988,12.399994l-6,4l-10.399994,4.800018l-10.799988,-3.200012l0.799988,-7.600006l-3.06665,-7.433319z" stroke-width="5" fill="#bfbfbf"/>
  <path id="svg_20" d="m110.933334,312.946686l-1.333328,-5.746674l5.999992,-0.400024l0.800003,5.600006l-5.466667,0.546692z" stroke-width="5" fill="#ff0000"/>
  <path id="svg_21" d="m246.933334,316.946686l-1.333328,-5.746674l6,-0.400024l0.799988,5.600006l-5.46666,0.546692z" stroke-width="5" fill="#ff0000"/>
  <path id="svg_22" d="m156.133331,426.146698l-1.333328,-5.746674l6,-0.400024l0.799988,5.600006l-5.46666,0.546692z" stroke-width="5" fill="#ff0000"/>
  <path id="svg_23" d="m324.93335,252.946701l-1.333344,-5.746674l6,-0.400024l0.799988,5.600006l-5.466644,0.546692z" stroke-width="5" fill="#ff0000"/>
  <path id="svg_24" d="m406.93338,256.546722l-1.333344,-5.746704l6,-0.400024l0.799988,5.600037l-5.466644,0.546692z" stroke-width="5" fill="#ff0000"/>
  <path id="svg_25" d="m176.133377,201.346725l-1.333344,-5.746704l6,-0.400024l0.799988,5.600037l-5.466644,0.546692z" stroke-width="5" fill="#ff0000"/>
  <path id="svg_26" d="m258.533325,150.566666l-0.133331,-25.766663l74,-0.400009l0,26.400009l-73.866669,-0.233337z" stroke-width="5" fill="#0000ff"/>
  <path id="svg_27" d="m256.144653,145.367004l-0.144501,-25.766998l80.400055,-0.400009l0,26.400009l-80.255554,-0.233002z" stroke-width="5" fill="#00007f"/>
  <path id="svg_28" d="m132.933334,183.366669l7.866669,-8.166672l3.199997,4.800003l-7.600006,6l-3.46666,-2.633331z" stroke-width="5" fill="#ff7f00"/>
  <path transform="rotate(-162.283, 154.068, 172.2)" id="svg_29" d="m148.53334,174.96666l7.866669,-8.166672l3.199997,4.800003l-7.600006,6l-3.46666,-2.633331z" stroke-width="5" fill="#ff7f00"/>
  <path id="svg_30" transform="rotate(-146.502, 170.865, 166.6)" d="m165.333344,169.366653l7.866669,-8.166672l3.199997,4.800003l-7.600006,6l-3.46666,-2.633331z" stroke-width="5" fill="#ff7f00"/>
  <path id="svg_31" d="m128.133347,298.166656l8.151016,-8.166656l3.315659,4.799988l-7.87471,6l-3.591965,-2.633331z" stroke-width="5" fill="#ff7f00"/>
  <path transform="rotate(139.511, 141.467, 281.799)" id="svg_32" d="m135.733353,284.56665l8.151016,-8.166656l3.315659,4.799988l-7.87471,6l-3.591965,-2.633331z" stroke-width="5" fill="#ff7f00"/>
  <path id="svg_33" d="m269.333344,240.966644l8.151031,-8.166656l3.315643,4.799988l-7.874725,6l-3.591949,-2.633331z" stroke-width="5" fill="#ff7f00"/>
  <path transform="rotate(-168.802, 291.866, 227.001)" id="svg_34" d="m286.133331,229.766647l8.151031,-8.166656l3.315643,4.799988l-7.874725,6l-3.591949,-2.633331z" stroke-width="5" fill="#ff7f00"/>
  <path id="svg_36" transform="rotate(-158.538, 309.064, 220.602)" d="m302.311127,222.988785l9.600464,-7.048721l3.905273,4.142929l-9.275055,5.178665l-4.230682,-2.272873z" stroke-width="5" fill="#ff7f00"/>
  <path id="svg_37" d="m400.133331,299.626678l45.866699,-23.626709l13.199982,23.200043l-48,24.399994l-11.066681,-23.973328z" stroke-width="5" fill="#7f0000"/>
  <path id="svg_38" d="m407.333313,311.626678l-5.733337,-11.626678l44.400024,-22.399994l6.799988,10.799988" stroke-width="5" fill="#ff0000"/>
  <path id="svg_39" d="m424.872406,326.427643l-3.672668,-7.663208l28.443481,-14.763611l4.356201,7.118164" stroke-width="5" fill="#7f7f7f"/>
  <path id="svg_40" d="m409.924011,311.625458l-1.522858,-3.151886l7.39328,-3.672424l1.806122,2.927765" stroke-width="5" fill="#bfbfbf"/>
 </g>
</svg>